<svg xmlns="http://www.w3.org/2000/svg" xmlns:xlink="http://www.w3.org/1999/xlink" version="1.1" width="256" height="256" viewBox="0 0 256 256" xml:space="preserve">
<desc>Created with Fabric.js 1.7.22</desc>
<defs>
</defs>
<g transform="translate(128 128) scale(0.72 0.72)" style="">
	<g style="stroke: none; stroke-width: 0; stroke-dasharray: none; stroke-linecap: butt; stroke-linejoin: miter; stroke-miterlimit: 10; fill: none; fill-rule: nonzero; opacity: 1;" transform="translate(-175.05 -175.05000000000004) scale(3.89 3.89)" >
	<path d="M 78.191 0.186 c -0.707 -0.328 -1.54 -0.215 -2.134 0.289 l -5.355 4.537 c -0.831 0.704 -2.049 0.704 -2.879 0 l -5.354 -4.537 c -0.746 -0.632 -1.84 -0.632 -2.586 0 l -5.355 4.537 c -0.831 0.704 -2.048 0.704 -2.879 0 l -5.355 -4.537 c -0.746 -0.632 -1.84 -0.632 -2.586 0 l -5.355 4.537 c -0.831 0.704 -2.049 0.704 -2.879 0 l -5.355 -4.537 c -0.746 -0.632 -1.84 -0.632 -2.586 0 l -5.355 4.537 c -0.831 0.704 -2.049 0.704 -2.879 0 l -5.355 -4.537 c -0.595 -0.504 -1.427 -0.617 -2.134 -0.289 C 11.102 0.513 10.65 1.221 10.65 2 V 88 c 0 0.779 0.452 1.487 1.159 1.814 C 12.077 89.939 12.364 90 12.649 90 c 0.465 0 0.925 -0.162 1.293 -0.474 l 5.355 -4.537 c 0.831 -0.704 2.049 -0.704 2.879 0 l 5.355 4.537 c 0.746 0.632 1.84 0.632 2.586 0 l 5.355 -4.537 c 0.831 -0.704 2.049 -0.704 2.879 0 l 5.355 4.537 c 0.746 0.632 1.84 0.632 2.586 0 l 5.355 -4.537 c 0.831 -0.704 2.049 -0.704 2.879 0 l 5.355 4.537 c 0.746 0.632 1.84 0.632 2.586 0 l 5.354 -4.537 c 0.831 -0.704 2.049 -0.704 2.879 0 l 5.355 4.537 c 0.594 0.502 1.427 0.617 2.134 0.288 c 0.707 -0.327 1.159 -1.035 1.159 -1.814 V 2 C 79.35 1.221 78.898 0.513 78.191 0.186 z M 41.597 43 h 6.806 c 2.994 0 5.43 2.436 5.43 5.431 v 5.28 c 0 2.994 -2.436 5.43 -5.43 5.43 H 47 v 2.249 c 0 1.104 -0.896 2 -2 2 s -2 -0.896 -2 -2 v -2.249 h -1.403 c -2.995 0 -5.431 -2.435 -5.431 -5.43 c 0 -1.104 0.896 -2 2 -2 s 2 0.896 2 2 c 0 0.788 0.642 1.43 1.431 1.43 h 6.806 c 0.788 0 1.43 -0.642 1.43 -1.43 v -5.28 c 0 -0.789 -0.642 -1.431 -1.43 -1.431 h -6.806 c -2.995 0 -5.431 -2.436 -5.431 -5.43 v -5.28 c 0 -2.995 2.436 -5.431 5.431 -5.431 H 43 V 28.61 c 0 -1.104 0.896 -2 2 -2 s 2 0.895 2 2 v 2.249 h 1.403 c 2.994 0 5.43 2.436 5.43 5.431 c 0 1.104 -0.896 2 -2 2 s -2 -0.895 -2 -2 c 0 -0.789 -0.642 -1.431 -1.43 -1.431 h -6.806 c -0.775 0 -1.431 0.655 -1.431 1.431 v 5.28 C 40.167 42.358 40.808 43 41.597 43 z" style="stroke: none; stroke-width: 1; stroke-dasharray: none; stroke-linecap: butt; stroke-linejoin: miter; stroke-miterlimit: 10; fill: rgb(36,47,155); fill-rule: nonzero; opacity: 1;" transform=" matrix(1 0 0 1 0 0) " stroke-linecap="round" />
</g>
</g>
</svg>